<?xml version="1.0" encoding="UTF-8" standalone="no"?>
<!-- Created with Inkscape (http://www.inkscape.org/) -->

<svg
  width="450"
  height="453.42099"
  viewBox="0 0 450 453.42099"
  version="1.1"
  id="svg1"
  inkscape:export-filename="LaLiga.png"
  inkscape:export-xdpi="96"
  inkscape:export-ydpi="96"
  inkscape:version="1.4 (e7c3feb, 2024-10-09)"
  sodipodi:docname="LaLiga.svg"
  xmlns:inkscape="http://www.inkscape.org/namespaces/inkscape"
  xmlns:sodipodi="http://sodipodi.sourceforge.net/DTD/sodipodi-0.dtd"
  xmlns="http://www.w3.org/2000/svg"
  xmlns:svg="http://www.w3.org/2000/svg"
>
  <sodipodi:namedview
    id="namedview1"
    pagecolor="#ffffff"
    bordercolor="#000000"
    borderopacity="0.25"
    inkscape:showpageshadow="2"
    inkscape:pageopacity="0.0"
    inkscape:pagecheckerboard="true"
    inkscape:deskcolor="#d1d1d1"
    inkscape:document-units="px"
    inkscape:zoom="0.64"
    inkscape:cx="205.46875"
    inkscape:cy="132.03125"
    inkscape:window-width="1852"
    inkscape:window-height="1066"
    inkscape:window-x="61"
    inkscape:window-y="7"
    inkscape:window-maximized="1"
    inkscape:current-layer="layer1"
  />
  <defs
    id="defs1"
  />
  <g
    inkscape:label="Layer 1"
    inkscape:groupmode="layer"
    id="layer1"
  >
    <g
      id="g11"
      transform="matrix(0.99817313,0,0,0.99817313,6.0040198e-4,2.5628588e-4)"
    >
      <g
        id="g10"
      >
        <path
          fill="#901480"
          d="m 199.163,0.404 c 1.668,-0.272 3.362,-0.517 5.043,-0.349 1.513,3.09 1.875,6.555 2.508,9.878 4.939,27.165 10.176,54.279 15.076,81.444 1.616,3.439 -2.547,4.06 -4.939,4.59 -25.872,5.055 -49.43,20.7 -64.389,42.383 -2.056,2.922 -3.685,6.154 -5.909,8.96 -1.552,1.862 -3.866,-0.44 -5.482,-1.034 C 116.013,131.64 90.904,117.094 65.821,102.509 64.373,101.694 62.007,100.143 63.222,98.203 91.278,47.765 142.609,11.381 199.163,0.404 Z"
          id="path1"
        />
        <path
          fill="#ff0000"
          d="m 227.078,24.712 c 58.468,-9.581 120.737,8.986 164.633,48.758 -1.448,2.457 -3.142,4.771 -5.081,6.866 -18.657,21.399 -37.134,42.978 -55.83,64.364 -1.409,2.573 -4.099,1.06 -5.611,-0.504 -22.019,-18.994 -52.339,-28.057 -81.146,-23.907 -1.875,0.129 -5.573,1.202 -5.767,-1.72 -4.564,-29.363 -8.663,-58.804 -13.137,-88.193 -0.246,-1.992 -1.112,-5.574 1.939,-5.664 z"
          id="path2"
        />
        <path
          fill="#004ad0"
          d="m 28.609,102.109 c 0.983,-2.289 3.685,-0.711 5.198,0.013 25.497,13.705 50.994,27.437 76.556,41.052 1.371,0.827 2.896,1.539 3.892,2.845 0,2.172 -1.383,4.008 -2.224,5.922 -13.266,25.82 -14.494,57.239 -3.905,84.211 1.332,1.978 0.323,4.008 -1.901,4.564 -27.385,10.667 -54.86,21.101 -82.245,31.768 -1.875,0.672 -4.926,2.133 -5.961,-0.504 C -3.922,217.57 0.112,153.387 28.609,102.109 Z"
          id="path3"
        />
        <path
          fill="#ff7d00"
          d="m 377.101,113.331 c 2.431,-2.508 4.681,-5.236 7.486,-7.357 2.082,-0.491 3.271,1.642 4.719,2.702 42.125,40.263 65.282,99.584 61.015,157.741 -5.482,0.595 -10.977,0.039 -16.459,-0.194 -25.045,-1.254 -50.089,-2.47 -75.134,-3.62 -1.5,-0.207 -3.168,0 -4.461,-0.905 -0.892,-1.927 -0.44,-4.125 -0.517,-6.154 0.659,-24.553 -7.99,-49.158 -23.622,-68.062 -3.297,-4.306 -7.564,-7.719 -10.861,-11.986 0.504,-1.797 1.901,-3.09 3.077,-4.461 18.321,-19.173 36.539,-38.438 54.757,-57.704 z"
          id="path4"
        />
        <g
          id="g7"
        >
          <path
            fill="#ffffff"
            d="m 163.697,190.651 c 9.206,-13.137 22.769,-22.924 38.078,-27.656 -2.47,2.211 -4.913,4.461 -7.331,6.736 8.184,-0.763 16.537,0.078 24.165,3.232 1.009,7.409 1.526,14.895 2.961,22.252 0.802,-7.422 1.086,-14.947 2.599,-22.265 7.473,-3.362 15.852,-3.853 23.933,-3.245 -2.392,-2.25 -4.836,-4.448 -7.279,-6.646 15.322,4.629 28.678,14.572 38.026,27.488 -2.845,-1.552 -5.702,-3.077 -8.572,-4.59 3.297,7.46 5.418,15.658 4.461,23.855 -6.672,3.181 -13.524,5.999 -20.17,9.245 7.331,-0.957 14.494,-2.832 21.748,-4.215 5.405,6.271 8.896,13.951 10.512,22.045 1.409,-2.728 2.767,-5.482 4.137,-8.223 0.246,15.593 -4.939,31.044 -14.223,43.534 0.556,-3.026 1.099,-6.038 1.642,-9.051 -6.051,5.482 -13.266,9.71 -21.256,11.624 -5.094,-5.521 -10.072,-11.158 -15.309,-16.537 3.245,6.659 7.422,12.813 10.732,19.433 -3.711,7.46 -10.576,12.749 -17.545,17.015 3.026,0.427 6.077,0.724 9.128,0.996 -14.61,5.288 -30.992,5.237 -45.629,0.091 3.013,-0.349 6.051,-0.685 9.077,-1.138 -7.228,-4.034 -13.499,-9.723 -17.817,-16.821 3.711,-6.517 7.435,-13.02 11.158,-19.537 -5.521,5.133 -10.344,10.951 -15.451,16.485 -8.029,-1.836 -15.27,-6.116 -21.308,-11.637 0.53,3.026 1.06,6.051 1.577,9.09 -9.245,-12.542 -14.417,-27.967 -14.223,-43.573 1.409,2.767 2.767,5.547 4.202,8.288 1.539,-8.12 5.107,-15.787 10.486,-22.084 7.176,1.28 14.248,3.232 21.502,4.15 -6.529,-3.349 -13.369,-6.038 -19.963,-9.232 -0.646,-8.197 1.086,-16.369 4.525,-23.803 -2.897,1.487 -5.741,3.077 -8.573,4.694 m 26.894,29.298 c 3.84,12.05 7.797,24.062 11.688,36.1 12.671,0.013 25.329,-0.013 37.987,0.013 3.969,-11.986 7.719,-24.036 11.792,-35.983 -10.189,-7.538 -20.532,-14.869 -30.695,-22.407 -10.318,7.343 -20.493,14.881 -30.772,22.277 z"
            id="path5"
          />
          <path
            d="m 206.895,155.521 c 16.446,-3.181 33.94,-0.75 48.848,6.943 18.877,9.594 33.41,27.424 38.776,47.93 5.12,18.813 2.547,39.565 -7.047,56.541 -7.822,14.08 -20.261,25.523 -34.936,32.143 -17.843,8.184 -38.918,8.921 -57.33,2.146 -18.502,-6.698 -34.095,-20.946 -42.474,-38.75 -9.102,-18.916 -9.736,-41.633 -1.733,-61.041 9.336,-23.402 31.097,-41.322 55.896,-45.912 m -43.198,35.13 c 2.832,-1.616 5.676,-3.207 8.572,-4.693 -3.439,7.435 -5.172,15.606 -4.525,23.803 6.594,3.194 13.434,5.883 19.963,9.232 -7.254,-0.918 -14.326,-2.87 -21.502,-4.15 -5.379,6.297 -8.947,13.964 -10.486,22.084 -1.435,-2.741 -2.793,-5.521 -4.202,-8.288 -0.194,15.606 4.978,31.031 14.223,43.573 -0.517,-3.038 -1.047,-6.064 -1.577,-9.09 6.038,5.521 13.279,9.801 21.308,11.637 5.107,-5.534 9.93,-11.352 15.451,-16.485 -3.724,6.517 -7.447,13.02 -11.158,19.537 4.318,7.098 10.589,12.787 17.817,16.821 -3.026,0.453 -6.064,0.789 -9.077,1.138 14.636,5.146 31.018,5.198 45.629,-0.091 -3.051,-0.272 -6.103,-0.569 -9.128,-0.996 6.969,-4.267 13.835,-9.555 17.545,-17.015 -3.31,-6.62 -7.486,-12.774 -10.732,-19.433 5.236,5.379 10.214,11.016 15.309,16.537 7.991,-1.914 15.205,-6.142 21.256,-11.624 -0.543,3.013 -1.086,6.025 -1.642,9.051 9.283,-12.49 14.468,-27.941 14.223,-43.534 -1.371,2.741 -2.728,5.495 -4.137,8.223 -1.616,-8.094 -5.107,-15.774 -10.512,-22.045 -7.254,1.383 -14.417,3.258 -21.748,4.215 6.646,-3.245 13.499,-6.064 20.17,-9.245 0.957,-8.197 -1.164,-16.395 -4.461,-23.855 2.87,1.513 5.728,3.038 8.572,4.59 -9.348,-12.917 -22.704,-22.86 -38.026,-27.488 2.444,2.198 4.887,4.396 7.279,6.646 -8.081,-0.608 -16.459,-0.116 -23.933,3.245 -1.513,7.318 -1.797,14.843 -2.599,22.265 -1.435,-7.357 -1.952,-14.843 -2.961,-22.252 -7.628,-3.155 -15.981,-3.995 -24.165,-3.232 2.418,-2.276 4.862,-4.525 7.331,-6.736 -15.308,4.73 -28.871,14.518 -38.077,27.655 z"
            id="path6"
          />
          <path
            d="m 190.591,219.949 c 10.279,-7.396 20.455,-14.934 30.772,-22.278 10.163,7.538 20.506,14.869 30.695,22.407 -4.073,11.947 -7.822,23.997 -11.792,35.983 -12.658,-0.026 -25.316,0 -37.987,-0.013 -3.892,-12.037 -7.848,-24.048 -11.688,-36.099 z"
            id="path7"
          />
        </g>
        <path
          fill="#0090ff"
          d="m 75.608,265.836 c 3.879,-1.629 7.628,-3.685 11.753,-4.642 1.629,0.853 2.095,2.767 2.948,4.254 9.814,22.304 27.993,40.69 49.999,51.098 5.611,2.806 11.74,4.357 17.377,7.098 -8.883,29.143 -18.127,58.17 -27.1,87.275 -0.556,1.862 -1.707,5.288 -4.344,3.969 C 72.97,398.999 27.406,359.615 3.628,309.396 c -1.254,-3.388 -4.163,-6.71 -3.543,-10.447 3.219,-2.198 6.995,-3.4 10.525,-5.004 21.671,-9.348 43.328,-18.735 64.998,-28.109 z"
          id="path8"
        />
        <path
          fill="#ffe500"
          d="m 325.55,273.84 c 1.474,-1.72 4.15,-0.375 6.116,-0.595 28.549,2.353 57.11,4.487 85.659,6.736 1.474,0.349 4.603,0.22 4.15,2.586 -3.413,58.507 -34.69,114.608 -82.271,148.729 -2.198,2.12 -3.995,-0.453 -5.275,-2.095 -15.257,-20.907 -30.604,-41.763 -45.9,-62.657 -2.495,-3.569 -5.443,-6.84 -7.512,-10.68 -0.336,-2.211 2.159,-3.142 3.439,-4.448 21.489,-16.059 36.151,-40.896 39.901,-67.454 0.698,-3.334 0.245,-7.006 1.693,-10.122 z"
          id="path9"
        />
        <path
          fill="#00aa00"
          d="m 250.985,338.927 c 1.383,-0.918 3.323,-0.646 4.008,0.996 14.843,21.89 29.492,43.922 44.271,65.863 2.418,3.763 5.249,7.279 7.254,11.3 -0.233,1.914 -2.185,2.715 -3.491,3.788 -39.526,26.273 -88.516,37.767 -135.593,31.859 -10.615,-1.487 -21.386,-3.064 -31.484,-6.736 -1.073,-3.129 0.892,-6.336 1.474,-9.4 6.84,-24.618 13.602,-49.262 20.39,-73.893 0.957,-3.194 1.435,-6.62 3.207,-9.503 3.077,-0.181 6.012,1.06 9.012,1.616 27.669,6.337 57.575,0.04 80.952,-15.89 z"
          id="path10"
        />
      </g>
    </g>
  </g>
</svg>