<svg xmlns="http://www.w3.org/2000/svg" viewBox="0 0 170.375 150.981"><path fill="#fff" stroke="#fff" stroke-width=".094" d="M86.813.064a84 84 0 0 0-6.844.25c1.84 3.58 3.862 7.162 5.5 10.844-2.715-1.371-5.225-3.047-7.844-4.72-.354 4.104-.308 8.21-.062 12.407 2.485-1.328 4.872-2.762 7.156-4.187.12 1.9.135 3.882.156 5.78-2.484 1.43-5.464 2.384-6.937 5-2.853 4.33-.983 10.805 3.937 12.75 5.836 3.338 14.387-1.76 13.813-8.655-.148-4.198-3.676-6.86-7.094-8.625-.02-1.9-.045-3.701-.063-5.5 2.314 1.275 4.526 2.644 6.938 3.718.258-3.803.328-7.7.187-11.5-2.586 1.328-5.094 2.557-7.781 3.688 1.757-3.72 3.926-7.25 5.688-10.969a93 93 0 0 0-6.75-.281zM84.719 23.25c.02 1.8.017 3.613-.063 5.313-1.606-.583-3.205-1.162-4.812-1.844a86 86 0 0 1 4.875-3.469zm3.906.563a69 69 0 0 1 3.844 3.75c-1.297.414-2.613.83-3.906 1.344-.02-1.7-.02-3.393.062-5.094zM84.281 33c2.563-.06 5.07.427 6.969 2.469-3.984 1.545-8.592 1.5-11.531-1.969 1.46-.24 3.025-.464 4.562-.5zm-17.56.05c2.18-1.824 6.299-.169 6.23 2.732.332 2.697-2.75 4.631-5.16 3.756-3.204-.364-3.955-5.056-1.07-6.488zm31.994-.45c2.775-2.33 7.52 1.32 5.652 4.54-1.07 2.812-5.87 3.064-6.902.076-1.217-1.589-.14-3.599 1.25-4.616zm-42.971 2.57c2.48-1.728 6.507.628 5.938 3.636-.472 2.405-3.65 4.44-5.767 2.863-2.813-1.069-2.76-5.27-.171-6.499zm55.006.4c3.383-1.339 7.24 3.521 3.865 5.958-1.578 2.018-4.785 1.554-6.008-.533-1.621-1.883-.052-4.802 2.143-5.425zm-66.93 6.731c.359-3.704 7.154-4.277 7.298-.18.528 2.493-2.062 3.522-3.648 4.74-1.514-1.283-4.025-2.256-3.65-4.56zm77.075-2.542c1.988-1.02 5.303.143 5.229 2.544.738 3.29-3.74 5.54-6.062 3.265-2.316-1.274-1.357-4.985.833-5.809zM27.009 59.688c14.094-9.758 30.526-16.136 47.397-18.82 2.572 6.573 5.045 13.246 6.222 20.233-1.3.214-2.596.328-3.794.542-1.162-5.688-2.825-11.372-5.083-16.646-19.157 3.91-37.67 12.212-52.225 25.472-1.007-.59-2.015-1.278-3.021-1.867 3.062-3.533 6.73-6.273 10.504-8.914zM84.01 41.264c4.376-2.148 7.556 5.115 2.872 6.666-4.28 1.848-7.154-4.819-2.872-6.666zm12.803.26c20.838 3.371 40.445 12.958 56.297 26.786-.795.908-1.582 1.816-2.471 2.827-14.641-12.84-32.54-21.646-51.584-25.538-2.141 5.423-3.977 10.943-5.22 16.558-1.2-.188-2.503-.373-3.704-.559 1.427-6.915 3.85-13.643 6.682-20.074zm-61.65 4.772c-.022-1.998 2.677-2.229 4.065-3.144 1.013 1.09 1.923 2.178 2.937 3.267-1.086 1.213-1.661 3.618-3.663 3.44-1.898.121-4.018-1.555-3.34-3.563zm94.992-1.037c1.793-.322 4.19-.746 5.113 1.243 1.316 1.486-.053 4.302-1.951 4.422-1.994.622-3.217-1.265-4.527-2.25.39-.803.973-2.51 1.365-3.415zM25.528 52.302c1.374-2.517 3.864-3.243 6.572-2.673.119 1.7.039 3.501-.044 5.202-2.694.63-5.101-.045-6.528-2.529zm56.008.388c1.372-2.716 3.862-3.342 6.669-2.674.02 1.702.037 3.401-.043 5.203-2.694.628-5.198.056-6.626-2.529zm58.277-2.337c4.279-2.046 6.357 5.232 1.76 5.582-3.587 1.038-5.052-4.645-1.76-5.582zM19.36 55.471c1.9-.02 3.809.656 5.42 1.74-.788 1.107-1.475 2.317-2.364 3.325-1.4-.084-2.705-.569-4.01-.856.285-1.403.57-2.805.954-4.209z"/><path fill="#fff" stroke="#fff" stroke-width=".094" d="M42.063 55.72c-4.027 6.743-4.633 15.368-1.157 22.531-4.522-1.949-10.14-2.417-14 1.125-7.54 5.583-5.293 18.275 2.75 22.188-.046-4.1-.796-9.888 3.782-11.938 4.57-2.55 10.299 1.493 10.156 6.594.894 8.691-8.832 14-16.438 13.281-9.01-.8-15.395-9.05-17.187-17.531 4.417 1.35 8.023 4.104 11.75 6.563-1.076-7.088-3.151-14.06-5.125-20.938-2.771 2.731-5.629 5.554-9.313 7.094 1.948-4.62 4.907-8.851 7.157-13.375-4.893.754-9.69 2.215-14.375 3.469.629 2.692 1.653 5.371 2.28 8.062.735 2.894-.431 5.818-.5 8.719.242 3.796 4.767 5.152 5.407 8.844 1.041 3.79 1.997 7.592 2.938 11.28 1.658 5.285-1.409 10.3-1.25 15.5 3.435 3.46 6.879 7.013 10.812 9.97 2.897-.232 5.496-1.645 8.188-2.375 14.456-4.157 29.417-5.811 44.406-6.875 26.073-2.584 52.715 1.423 77.219 10.656 3.654-4.34 7.417-8.506 10.968-12.844-.848-4.293-2.496-8.448-2.844-12.844 1.156-4.113 2.731-8.234 4.188-12.25.965-3.11 4.229-4.853 5.094-8.062.375-2.204-.457-4.486-.281-6.688.968-3.112 2.455-6.051 3.625-9.062a169 169 0 0 0-12.25-3.344c1.449 4.285 2.896 8.655 3.343 13.25-2.422-2.372-4.639-4.956-6.969-7.531-2.237 5.724-4.595 11.545-6.03 17.562 3.79-.943 7.376-2.565 11.062-3.906-2.121 7.324-6.918 14.565-14.594 16.75-6.378 2.168-14.314-.345-17.781-6.406-2.341-3.776-1.62-9.183 1.75-12.219 1.979-2.024 6.101-1.874 7.531.813 2.133 3.076.15 6.82-.312 10.125 3.78-1.941 7.867-4.1 9.625-8.22 2.442-5.425 1.263-13.593-5.063-15.624-4.314-1.751-8.514.673-12.094 2.812 3.817-7.74 4.012-17.053.125-24.812-6.639 5.473-10.739 14.321-9.344 22.906-1.72-1.98-3.424-4.26-6.03-5.031-4.415-.951-9.793 1.327-11.344 5.844-1.448 4.816-.392 10.402 3.25 14.062 1.37-2.615 1.816-6.435 4.906-7.469 3.385-1.237 6.719 1.843 7.25 4.938 1.27 6.686-4.55 13.427-11.25 13.5-5.998.265-12.428-2.652-15.188-8.125-1.53-2.583-1.563-5.693-1.594-8.594 2.817 1.471 5.434 3.444 8.157 5.313.627-6.706.773-13.491.5-20.188-3.381 1.637-6.353 4.065-9.531 6 1.546-4.717 3.49-9.344 4.937-14.062-5.503-.34-11.12-.38-16.719-.22 1.455 4.986 3.609 9.767 5.063 14.75-2.927-2.267-5.55-4.85-8.375-7.218-.626 6.705-.937 13.523-.563 20.219 3.181-1.735 6.136-3.762 9.625-5-.657 4.208-2.004 8.305-4.969 11.437-5.042 5.356-13.523 6.752-20.156 3.625-4.419-1.752-7.686-6.597-6.937-11.406.257-3.803 4.632-7.067 8.25-5.406 3.317 1.464 3.056 5.674 4.187 8.562 2.97-2.833 6.036-6.385 5.688-10.781.636-5.806-5.434-11.514-11.219-10.25-2.393.526-4.27 2.142-6.156 3.563.612-8.108-2.874-16.08-9.032-21.313zm42.78 25.75c.093-.016.19-.008.282 0 1.102.09 2.103 1.67 1.063 2.656-1.386 1.415-3.612-.839-2.126-2.156.24-.284.506-.452.782-.5zM4.72 87.033c1.826 2.28 2.339 5.07 1.968 7.875-2.422-1.974-2.937-4.964-1.968-7.875zm158.594.78c.916 1.59 1.25 3.36 1.468 5.157-1.09.713-2.285 1.445-3.375 2.156.17-2.602.83-5.001 1.906-7.312zM84.22 106.751c1.323 2.285 2.643 4.588 3.969 6.875-1.274 2.514-2.63 4.922-4 7.438-1.329-2.386-2.558-4.771-3.782-7.156 1.273-2.416 2.536-4.742 3.813-7.157zm-18.281 2.219c1.504.383 3.03.854 4.437 1.438-.69 1.108-1.376 2.233-2.062 3.343-1.005-.39-1.935-.798-2.938-1.187.187-1.203.379-2.39.563-3.594zm32 .031c1.202-.013 2.42.078 3.718.063.016 1.3.11 2.606.125 3.906-1.303.013-2.577.137-3.875.25-.018-1.4-.05-2.817.031-4.219zm-47.875.469c4.846-.053 10.017 2.745 8.874 8.156-2.421 7.03-14.098 8.272-17.968 1.813-1.741-3.78 1.21-7.502 4.593-8.938 1.294-.664 2.885-1.013 4.5-1.031zm66.843.625c5.055.009 10.642 3.362 9.969 8.812-2.52 7.527-15.145 6.762-18.219.094-1.439-3.784 1.115-7.502 4.906-8.344a10 10 0 0 1 3.344-.562zm-88.875 5.187c2.003.377 3.099 1.669 3.719 3.563-1.094.413-2.187.925-3.281 1.437-.406-.496-1.402-1.382-1.907-1.875.39-.807 1.078-2.32 1.47-3.125zm108.907.094c1.4.083 2.792.07 4.093.156.123 1.998-.673 3.712-2.562 4.532-.506-.595-1.5-1.69-1.906-2.188.094-.598.28-1.8.375-2.5zm-67 2.844c.41.897.841 1.697 1.25 2.594-.593.606-1.283 1.205-1.876 1.812-.904-.29-1.907-.679-2.812-.969.087-1.1.165-2.085.25-3.187 1-.111 2.089-.137 3.188-.25zm28.03.687c.804.392 2.412 1.297 3.22 1.688-.786 1.309-1.589 2.51-2.376 3.719a75 75 0 0 1-2.906-2.282c.688-1.007 1.376-2.116 2.063-3.125zm56.5.5c.823 2.092 1.554 4.283 2.376 6.375-1.48 1.815-3.078 3.62-4.656 5.438-.724-2.092-1.426-4.191-2.25-6.281a117 117 0 0 1 4.53-5.532zm-140.405.22c1.317 1.485 2.918 2.96 3.937 4.75.022 1.898-.352 3.814-.531 5.718-1.714-1.383-3.537-2.775-4.657-4.562.28-2.005.772-4 1.25-5.907zM135.313 124c.902.391 1.814.892 2.718 1.282.01.7.024 1.993.031 2.593-.797.41-1.606.716-2.5 1.125a40 40 0 0 0-2.125-1.875 32 32 0 0 1 1.875-3.125zm-104.188.031c.506.595 1.618 1.9 2.125 2.594-1.288 1.013-2.686 1.827-4.281 2.344-.213-.999-.633-2.91-.844-3.906.997-.31 2.003-.722 3-1.032zm116.957-67.669c1.494-.315 2.9.47 4.307.854a72 72 0 0 1-1.352 4.316c-1.004-.09-2.904-.17-3.807-.259-.115-1.698-.841-3.792.852-4.91z"/><path fill="#fff" stroke="#fff" stroke-width=".094" d="M83.896 58.166a18 18 0 0 1 3.196-.335c.116 1.4.229 2.797.246 4.197-1.4.114-2.7.33-4.094.545-.016-1.5-1.241-3.687.652-4.407zM11.46 64.558c1.173-2.314 3.162-3.537 5.769-2.864.016 1.501-.07 2.9-.151 4.401-2 .223-4.005-.356-5.618-1.537zm142.287-2.056c1.695-.219 3.297-.236 4.996-.154.012.9.033 2.9.04 3.901-1.495.216-2.993.332-4.491.447-.217-1.397-.434-2.794-.545-4.194zm-119.312 72.91c13.467-3.149 27.258-3.999 40.949-4.948 19.393-.712 39.1-.128 57.953 4.768 5.018 1.345 10.434 2.986 14.08 6.946-3.557 4.238-9.25 4.902-14.238 5.956-10.086 1.61-20.377 2.223-30.572 2.634-20.497.423-41.2.25-61.534-2.929-6.414-1.129-13.325-2.154-18.571-6.397 2.655-4.03 7.643-4.985 11.933-6.03z"/></svg>